<?xml version="1.0" standalone="no"?><!DOCTYPE svg PUBLIC "-//W3C//DTD SVG 1.1//EN" "http://www.w3.org/Graphics/SVG/1.1/DTD/svg11.dtd"><svg class="icon" width="1024" height="1024" viewBox="0 0 1024 1024" version="1.1" xmlns="http://www.w3.org/2000/svg"><path d="M472.11008 695.5264c-11.40224 9.5488-25.31328 14.2592-41.81504 14.2592a72.09984 72.09984 0 0 1-37.77536-10.43456c-11.648-6.99904-20.23936-17.52576-25.68192-31.65696-5.5552-14.12096-8.33024-30.62784-8.33024-49.51552 0-14.63808 2.304-28.88704 7.02976-42.624 4.62336-13.86496 12.69248-24.76032 24.15616-32.98816 11.52512-8.25856 25.76896-12.30336 42.84928-12.30336 14.90432 0 27.20256 3.69664 37.00224 11.06944 9.80992 7.37792 17.29024 19.12832 22.5024 35.28192l28.93312-6.82496c-5.93408-20.46976-16.49152-36.36736-31.73376-47.71328-15.13984-11.30496-33.83296-17.01888-56.09984-17.01888-19.58912 0-37.57568 4.52096-53.86752 13.46048-16.34816 8.90368-28.93824 22.07744-37.74464 39.24992-8.8576 17.28-13.30688 37.4528-13.30688 60.544 0 21.31456 3.95264 41.12896 11.74016 59.61216 7.8848 18.52928 19.2768 32.68608 34.29888 42.43968 15.06816 9.74848 34.53952 14.57664 58.44992 14.57664 23.17824 0 42.70592-6.31296 58.83904-18.95424 15.9744-12.79488 27.02336-31.13472 33.24416-55.31136l-29.45536-7.48032c-4.11648 18.78016-11.7504 32.91136-23.23456 42.33216z m222.17216-54.37952c-4.05504-3.68128-9.97376-7.42912-17.75616-11.16672 21.29408-2.88768 37.08928-9.73312 47.30368-20.57728 10.20928-10.79296 15.29344-24.0896 15.29344-39.89504 0-12.18048-3.06176-23.40352-9.1904-33.52576-6.20032-10.02496-14.45888-17.13664-24.74496-21.12-10.28096-3.99872-25.33376-5.95968-45.23008-5.95968h-98.53952v222.27456h29.45536v-98.67264h34.0992c7.58784 0 12.98944 0.31232 16.31232 1.0496a42.8288 42.8288 0 0 1 13.4144 5.86752c4.43392 2.75968 9.40544 7.78752 14.96064 14.84288 5.63712 7.1168 12.63104 17.33632 21.2736 30.66368l29.39904 46.24384h36.992l-38.62528-60.50816c-7.72608-11.84768-15.90272-21.7088-24.41728-29.5168z m-40.18176-34.18112h-63.22688v-73.54368h70.2976c16.50176 0 28.64128 3.37408 36.20352 10.16832 7.68 6.79424 11.46368 15.36 11.46368 25.89184a36.608 36.608 0 0 1-5.9392 19.98848c-3.97824 6.01088-9.71264 10.51648-17.28512 13.29152-7.59296 2.79552-18.05824 4.20352-31.5136 4.20352z m302.78144-98.05824l-53.15072 154.68544a1281.40288 1281.40288 0 0 0-11.86816 35.65056 1313.15712 1313.15712 0 0 0-10.64448-32.99328l-52.57216-157.3376h-44.34944v222.27456h28.4416v-189.26592l64.24064 189.26592h26.5472l64.62976-186.12736v186.12736h28.288V508.90752h-39.56224z" fill="" /><path d="M455.20896 796.27776H219.87328c-80.86528 0-146.432-65.55136-146.432-146.42176 0-80.83968 65.5616-146.4576 146.432-146.4576 0.54784 0 1.0752 0.16384 1.64352 0.16384a144.7168 144.7168 0 0 1-1.64352-20.98688 146.24768 146.24768 0 0 1 42.88512-103.5776 146.54464 146.54464 0 0 1 103.49568-42.90048c53.8112 0 100.65408 29.056 126.08 72.23808 5.99552-110.1056 96.91648-197.75488 208.66048-197.75488 115.5328 0 209.1776 93.696 209.1776 209.23904a206.0288 206.0288 0 0 1-3.41504 36.72576h42.15296c1.78176-11.99616 3.072-24.2176 3.072-36.72576 0-138.57792-112.3584-251.04896-250.98752-251.04896-105.0368 0-194.78016 64.52736-232.30976 155.99616a187.32544 187.32544 0 0 0-102.46144-30.46912c-98.48832 0-179.14368 75.63264-187.40224 171.98592-84.24448 18.67264-147.25632 93.74208-147.25632 183.63392 0 103.93088 84.27008 188.24192 188.29312 188.24192h235.3408v-41.8816z" fill="" /></svg>